<svg width="36" height="35" viewBox="0 0 36 35" fill="none" xmlns="http://www.w3.org/2000/svg">
<path d="M27.0811 6.43925C21.2576 6.03116 14.7711 6.03116 8.94762 6.43925C7.72858 6.52468 6.80493 7.43534 6.71327 8.54846C6.41932 12.1182 6.38021 17.4664 6.64976 21.0325C6.73879 22.2104 7.79883 23.2215 9.2329 23.2215H13.7285V28.632L9.24208 28.6289C5.12635 28.6289 1.4321 25.6528 1.11299 21.4309C0.822469 17.5873 0.862595 11.9609 1.1793 8.11473C1.4967 4.26016 4.67373 1.30841 8.54987 1.03678C14.6382 0.610136 21.3906 0.610134 27.4789 1.03678C31.355 1.30841 34.5321 4.26016 34.8495 8.11473C35.1662 11.9609 35.1523 17.5873 34.8618 21.4309C34.5427 25.6528 30.857 28.641 26.7412 28.641L22.3012 28.6379L13.7285 34.0484L13.7285 28.632L22.3012 23.2215H26.7419C28.176 23.2215 29.236 22.2104 29.3251 21.0325C29.5946 17.4664 29.6094 12.1182 29.3155 8.54846C29.2238 7.43534 28.3002 6.52468 27.0811 6.43925Z" fill="#FE5000"/>
</svg>
