<svg width="24" height="24" viewBox="0 0 24 24" fill="none" xmlns="http://www.w3.org/2000/svg">
<path fill-rule="evenodd" clip-rule="evenodd" d="M15.5 9.5C15.7652 9.5 16.0196 9.39464 16.2071 9.20711C16.3946 9.01957 16.5 8.76522 16.5 8.5C16.5 8.23478 16.3946 7.98043 16.2071 7.79289C16.0196 7.60536 15.7652 7.5 15.5 7.5C15.2348 7.5 14.9804 7.60536 14.7929 7.79289C14.6054 7.98043 14.5 8.23478 14.5 8.5C14.5 8.76522 14.6054 9.01957 14.7929 9.20711C14.9804 9.39464 15.2348 9.5 15.5 9.5ZM15.5 11C16.163 11 16.7989 10.7366 17.2678 10.2678C17.7366 9.79893 18 9.16304 18 8.5C18 7.83696 17.7366 7.20107 17.2678 6.73223C16.7989 6.26339 16.163 6 15.5 6C14.837 6 14.2011 6.26339 13.7322 6.73223C13.2634 7.20107 13 7.83696 13 8.5C13 9.16304 13.2634 9.79893 13.7322 10.2678C14.2011 10.7366 14.837 11 15.5 11ZM13.25 17V15C13.25 14.2707 12.9603 13.5712 12.4445 13.0555C11.9288 12.5397 11.2293 12.25 10.5 12.25H6.5C5.77065 12.25 5.07118 12.5397 4.55546 13.0555C4.03973 13.5712 3.75 14.2707 3.75 15V17H5.25V15C5.25 14.31 5.81 13.75 6.5 13.75H10.5C11.19 13.75 11.75 14.31 11.75 15V17H13.25ZM20.25 15V17H18.75V15C18.75 14.31 18.19 13.75 17.5 13.75H15V12.25H17.5C18.2293 12.25 18.9288 12.5397 19.4445 13.0555C19.9603 13.5712 20.25 14.2707 20.25 15ZM9.5 8.5C9.5 8.76522 9.39464 9.01957 9.20711 9.20711C9.01957 9.39464 8.76522 9.5 8.5 9.5C8.23478 9.5 7.98043 9.39464 7.79289 9.20711C7.60536 9.01957 7.5 8.76522 7.5 8.5C7.5 8.23478 7.60536 7.98043 7.79289 7.79289C7.98043 7.60536 8.23478 7.5 8.5 7.5C8.76522 7.5 9.01957 7.60536 9.20711 7.79289C9.39464 7.98043 9.5 8.23478 9.5 8.5ZM11 8.5C11 9.16304 10.7366 9.79893 10.2678 10.2678C9.79893 10.7366 9.16304 11 8.5 11C7.83696 11 7.20107 10.7366 6.73223 10.2678C6.26339 9.79893 6 9.16304 6 8.5C6 7.83696 6.26339 7.20107 6.73223 6.73223C7.20107 6.26339 7.83696 6 8.5 6C9.16304 6 9.79893 6.26339 10.2678 6.73223C10.7366 7.20107 11 7.83696 11 8.5Z" fill="#1E1E1E"/>
</svg>
